<svg width="24" height="24" viewBox="0 0 24 24" fill="none" xmlns="http://www.w3.org/2000/svg">
<path d="M21.6 4H2.4C1.08 4 0.012 4.95625 0.012 6.125L0 18.875C0 20.0438 1.08 21 2.4 21H21.6C22.92 21 24 20.0438 24 18.875V6.125C24 4.95625 22.92 4 21.6 4ZM21.12 8.51562L12.636 13.2119C12.252 13.4244 11.748 13.4244 11.364 13.2119L2.88 8.51562C2.58 8.34562 2.4 8.05875 2.4 7.75063C2.4 7.03875 3.276 6.61375 3.96 6.98563L12 11.4375L20.04 6.98563C20.724 6.61375 21.6 7.03875 21.6 7.75063C21.6 8.05875 21.42 8.34562 21.12 8.51562Z" fill="#2052C9"/>
</svg>
