<svg width="24" height="24" viewBox="0 0 24 24" fill="none" xmlns="http://www.w3.org/2000/svg">
<path d="M19.3568 4.10988C17.9002 1.59626 15.3131 0.0605859 12.4362 0.00189844C12.3133 -0.000632812 12.1897 -0.000632812 12.0669 0.00189844C9.18997 0.0605859 6.60284 1.59626 5.14625 4.10988C3.65741 6.67919 3.61668 9.76544 5.03727 12.3656L10.9887 23.2588C10.9913 23.2636 10.994 23.2684 10.9968 23.2732C11.2586 23.7283 11.7277 24 12.2516 24C12.7755 24 13.2446 23.7283 13.5064 23.2732C13.5091 23.2684 13.5118 23.2636 13.5145 23.2588L19.4658 12.3656C20.8863 9.76544 20.8456 6.67919 19.3568 4.10988ZM12.2515 10.875C10.3905 10.875 8.87651 9.361 8.87651 7.50002C8.87651 5.63903 10.3905 4.12502 12.2515 4.12502C14.1125 4.12502 15.6265 5.63903 15.6265 7.50002C15.6265 9.361 14.1125 10.875 12.2515 10.875Z" fill="#2052C9"/>
</svg>
