<svg width="24" height="24" viewBox="0 0 24 24" fill="none" xmlns="http://www.w3.org/2000/svg">
<path d="M18.4431 23.9522C13.5536 23.9459 8.86624 22.0007 5.40886 18.5434C1.95148 15.086 0.00633762 10.3986 0 5.50912C0 4.04805 0.580409 2.64681 1.61354 1.61368C2.64668 0.580546 4.04791 0.00013688 5.50898 0.00013688C5.81837 -0.00221977 6.12724 0.0258594 6.43114 0.0839691C6.72492 0.127443 7.01373 0.199645 7.29341 0.299538C7.49012 0.368555 7.6654 0.487722 7.80193 0.645253C7.93845 0.802785 8.0315 0.993225 8.07185 1.19774L9.71257 8.38337C9.7568 8.57841 9.75147 8.78143 9.69708 8.97389C9.64269 9.16635 9.54097 9.34212 9.4012 9.48516C9.24551 9.65283 9.23353 9.66481 7.76048 10.4313C8.94011 13.0191 11.0098 15.0973 13.5928 16.2876C14.3713 14.8025 14.3832 14.7906 14.5509 14.6349C14.6939 14.4951 14.8697 14.3934 15.0622 14.339C15.2546 14.2846 15.4576 14.2793 15.6527 14.3235L22.8383 15.9642C23.0363 16.0101 23.2193 16.1057 23.3702 16.2419C23.521 16.3781 23.6347 16.5504 23.7006 16.7426C23.8017 17.0269 23.8778 17.3194 23.9281 17.6169C23.9763 17.9179 24.0004 18.2223 24 18.5271C23.9779 19.9819 23.3812 21.3689 22.3401 22.3853C21.299 23.4018 19.898 23.965 18.4431 23.9522Z" fill="#2052C9"/>
</svg>
