<svg width="24" height="24" viewBox="0 0 24 24" fill="none" xmlns="http://www.w3.org/2000/svg">
<path d="M12 0C9.62663 0 7.30655 0.703787 5.33316 2.02236C3.35977 3.34094 1.8217 5.21508 0.913451 7.4078C0.00519945 9.60051 -0.232441 12.0133 0.230582 14.3411C0.693604 16.6689 1.83649 18.807 3.51472 20.4853C5.19295 22.1635 7.33115 23.3064 9.65892 23.7694C11.9867 24.2324 14.3995 23.9948 16.5922 23.0865C18.7849 22.1783 20.6591 20.6402 21.9776 18.6668C23.2962 16.6935 24 14.3734 24 12C24 8.8174 22.7357 5.76515 20.4853 3.51472C18.2348 1.26428 15.1826 0 12 0ZM16.3636 13.0909H12C11.7107 13.0909 11.4332 12.976 11.2286 12.7714C11.024 12.5668 10.9091 12.2893 10.9091 12V5.45454C10.9091 5.16522 11.024 4.88774 11.2286 4.68316C11.4332 4.47857 11.7107 4.36364 12 4.36364C12.2893 4.36364 12.5668 4.47857 12.7714 4.68316C12.976 4.88774 13.0909 5.16522 13.0909 5.45454V10.9091H16.3636C16.653 10.9091 16.9304 11.024 17.135 11.2286C17.3396 11.4332 17.4545 11.7107 17.4545 12C17.4545 12.2893 17.3396 12.5668 17.135 12.7714C16.9304 12.976 16.653 13.0909 16.3636 13.0909Z" fill="#2052C9"/>
</svg>
