<?xml version="1.0" standalone="no"?>
<!DOCTYPE svg PUBLIC "-//W3C//DTD SVG 20010904//EN"
 "http://www.w3.org/TR/2001/REC-SVG-20010904/DTD/svg10.dtd">
<svg version="1.0" xmlns="http://www.w3.org/2000/svg"
 width="700.000000pt" height="700.000000pt" viewBox="0 0 700.000000 700.000000"
 preserveAspectRatio="xMidYMid meet">
<metadata>
Created by potrace 1.14, written by Peter Selinger 2001-2017
</metadata>
<g transform="translate(0.000000,700.000000) scale(0.100000,-0.100000)"
fill="#000000" stroke="none">
<path d="M0 3500 l0 -3500 3500 0 3500 0 0 3500 0 3500 -3500 0 -3500 0 0
-3500z m4688 2998 c197 -72 343 -219 414 -418 l23 -65 3 -2469 c2 -2748 8
-2514 -67 -2672 -71 -149 -216 -276 -376 -331 l-80 -28 -1110 0 -1110 0 -82
32 c-106 41 -176 88 -255 172 -71 75 -105 129 -145 235 l-28 71 -3 2468 c-2
2736 -7 2529 63 2672 68 137 179 245 313 307 129 59 80 57 1272 55 l1095 -2
73 -27z"/>
<path d="M3050 6180 l-605 -5 -57 -28 c-70 -34 -131 -101 -158 -173 -19 -51
-20 -77 -20 -389 l0 -335 1290 0 1290 0 0 340 c0 317 -1 343 -20 394 -27 72
-88 139 -158 173 l-57 28 -450 0 c-247 1 -722 -2 -1055 -5z m860 -485 l0 -175
-410 0 -410 0 0 175 0 175 410 0 410 0 0 -175z"/>
<path d="M2210 3750 l0 -1160 1290 0 1290 0 0 1160 0 1160 -1290 0 -1290 0 0
-1160z"/>
<path d="M2210 1685 c0 -552 0 -565 21 -622 26 -68 91 -138 164 -173 l50 -25
1055 0 1055 0 57 28 c70 34 131 101 158 173 19 53 20 76 20 619 l0 565 -1290
0 -1290 0 0 -565z m1392 374 c193 -40 360 -210 399 -407 24 -123 -9 -283 -79
-385 -90 -130 -267 -227 -417 -227 -63 0 -168 26 -232 57 -76 36 -191 150
-226 223 -100 207 -67 424 88 589 123 130 295 185 467 150z"/>
<path d="M3421 1703 c-51 -25 -85 -85 -85 -147 0 -98 68 -168 162 -168 137 0
214 141 142 260 -42 68 -141 93 -219 55z"/>
</g>
</svg>
