<svg width="18" height="18" viewBox="0 0 18 18" fill="none" xmlns="http://www.w3.org/2000/svg">
<path fill-rule="evenodd" clip-rule="evenodd" d="M5.21488 0.145508H12.2901C13.6731 0.145508 14.9996 0.694931 15.9776 1.67291C16.9555 2.65089 17.505 3.97731 17.505 5.36038V12.4455C17.505 13.8285 16.9555 15.155 15.9776 16.1329C14.9996 17.1109 13.6731 17.6603 12.2901 17.6603H5.21488C4.52922 17.6603 3.85029 17.5251 3.21695 17.2624C2.5836 16.9997 2.00828 16.6147 1.52391 16.1294C1.03953 15.6442 0.655617 15.0681 0.394128 14.4343C0.132639 13.8004 -0.00129167 13.1212 9.38901e-06 12.4356V5.36038C9.38901e-06 3.97731 0.549433 2.65089 1.52741 1.67291C2.50539 0.694931 3.83181 0.145508 5.21488 0.145508ZM14.7321 14.8776C15.3797 14.2299 15.7436 13.3515 15.7436 12.4356V5.36038C15.7436 4.44445 15.3797 3.56604 14.7321 2.91839C14.0844 2.27073 13.206 1.90689 12.2901 1.90689H5.21488C4.29896 1.90689 3.42055 2.27073 2.77289 2.91839C2.12524 3.56604 1.76139 4.44445 1.76139 5.36038V12.4356C1.76139 13.3515 2.12524 14.2299 2.77289 14.8776C3.42055 15.5252 4.29896 15.8891 5.21488 15.8891H12.2901C13.206 15.8891 14.0844 15.5252 14.7321 14.8776ZM13.2894 3.32183C13.0737 3.32184 12.8629 3.38594 12.6837 3.50599C12.5045 3.62603 12.365 3.79662 12.2829 3.99609C12.2008 4.19557 12.1798 4.41493 12.2226 4.62634C12.2654 4.83776 12.3701 5.03168 12.5233 5.18351C12.6765 5.33534 12.8714 5.43822 13.0832 5.47909C13.295 5.51997 13.5141 5.497 13.7129 5.41309C13.9116 5.32919 14.0809 5.18813 14.1993 5.00784C14.3177 4.82754 14.3799 4.61612 14.3779 4.40043C14.3779 4.25795 14.3497 4.11688 14.2949 3.98537C14.2401 3.85386 14.1597 3.73451 14.0585 3.63422C13.9573 3.53394 13.8372 3.4547 13.7052 3.40108C13.5732 3.34746 13.4319 3.32052 13.2894 3.32183ZM8.7576 4.37078C7.86039 4.36882 6.9828 4.63321 6.23599 5.13045C5.48918 5.62769 4.90676 6.3354 4.56251 7.16394C4.21826 7.99247 4.12767 8.90454 4.30223 9.7846C4.47678 10.6647 4.90863 11.4731 5.54305 12.1075C6.17747 12.7419 6.9859 13.1738 7.86596 13.3483C8.74602 13.5229 9.65808 13.4323 10.4866 13.0881C11.3152 12.7438 12.0229 12.1614 12.5201 11.4146C13.0174 10.6678 13.2817 9.79017 13.2798 8.89297C13.2772 7.69442 12.7999 6.5457 11.9524 5.69819C11.1049 4.85068 9.95615 4.37339 8.7576 4.37078ZM8.7576 11.6637C8.20919 11.6656 7.67252 11.5048 7.21558 11.2016C6.75864 10.8983 6.40198 10.4663 6.19075 9.96015C5.97953 9.45405 5.92324 8.89664 6.02903 8.35853C6.13482 7.82041 6.39792 7.32579 6.78501 6.93731C7.17211 6.54883 7.66578 6.28396 8.20352 6.17625C8.74125 6.06853 9.29885 6.12282 9.80571 6.33224C10.3126 6.54165 10.7459 6.89677 11.0508 7.35263C11.3556 7.80848 11.5184 8.34456 11.5184 8.89297C11.5184 9.6261 11.2279 10.3293 10.7104 10.8487C10.1929 11.368 9.49072 11.6611 8.7576 11.6637Z" fill="white"/>
</svg>
