<svg width="18" height="18" viewBox="0 0 18 18" fill="none" xmlns="http://www.w3.org/2000/svg">
<path fill-rule="evenodd" clip-rule="evenodd" d="M5.21488 0H12.2901C13.6731 0 14.9996 0.549423 15.9776 1.5274C16.9555 2.50538 17.505 3.8318 17.505 5.21487V12.3C17.505 13.683 16.9555 15.0095 15.9776 15.9874C14.9996 16.9654 13.6731 17.5148 12.2901 17.5148H5.21488C4.52922 17.5148 3.85029 17.3796 3.21695 17.1169C2.5836 16.8542 2.00828 16.4692 1.52391 15.9839C1.03953 15.4986 0.655617 14.9226 0.394128 14.2888C0.132639 13.6549 -0.00129167 12.9757 9.38901e-06 12.2901V5.21487C9.38901e-06 3.8318 0.549433 2.50538 1.52741 1.5274C2.50539 0.549423 3.83181 0 5.21488 0ZM14.7321 14.7321C15.3797 14.0844 15.7436 13.206 15.7436 12.2901V5.21487C15.7436 4.29895 15.3797 3.42054 14.7321 2.77288C14.0844 2.12523 13.206 1.76138 12.2901 1.76138H5.21488C4.29896 1.76138 3.42055 2.12523 2.77289 2.77288C2.12524 3.42054 1.76139 4.29895 1.76139 5.21487V12.2901C1.76139 13.206 2.12524 14.0844 2.77289 14.7321C3.42055 15.3797 4.29896 15.7436 5.21488 15.7436H12.2901C13.206 15.7436 14.0844 15.3797 14.7321 14.7321ZM13.2894 3.17632C13.0737 3.17633 12.8629 3.24043 12.6837 3.36048C12.5045 3.48053 12.365 3.65111 12.2829 3.85059C12.2008 4.05006 12.1798 4.26942 12.2226 4.48084C12.2654 4.69225 12.3701 4.88618 12.5233 5.038C12.6765 5.18983 12.8714 5.29271 13.0832 5.33358C13.295 5.37446 13.5141 5.35149 13.7129 5.26759C13.9116 5.18368 14.0809 5.04263 14.1993 4.86233C14.3177 4.68203 14.3799 4.47061 14.3779 4.25492C14.3779 4.11244 14.3497 3.97137 14.2949 3.83986C14.2401 3.70835 14.1597 3.589 14.0585 3.48872C13.9573 3.38843 13.8372 3.30919 13.7052 3.25557C13.5732 3.20195 13.4319 3.17501 13.2894 3.17632ZM8.7576 4.22527C7.86039 4.22332 6.9828 4.4877 6.23599 4.98494C5.48918 5.48218 4.90676 6.1899 4.56251 7.01843C4.21826 7.84696 4.12767 8.75903 4.30223 9.63909C4.47678 10.5192 4.90863 11.3276 5.54305 11.962C6.17747 12.5964 6.9859 13.0283 7.86596 13.2028C8.74602 13.3774 9.65808 13.2868 10.4866 12.9426C11.3152 12.5983 12.0229 12.0159 12.5201 11.2691C13.0174 10.5223 13.2817 9.64467 13.2798 8.74746C13.2772 7.54891 12.7999 6.40019 11.9524 5.55268C11.1049 4.70517 9.95615 4.22789 8.7576 4.22527ZM8.7576 11.5182C8.20919 11.5201 7.67252 11.3593 7.21558 11.056C6.75864 10.7528 6.40198 10.3207 6.19075 9.81464C5.97953 9.30854 5.92324 8.75113 6.02903 8.21302C6.13482 7.6749 6.39792 7.18029 6.78501 6.79181C7.17211 6.40332 7.66578 6.13845 8.20352 6.03074C8.74125 5.92303 9.29885 5.97731 9.80571 6.18673C10.3126 6.39614 10.7459 6.75127 11.0508 7.20712C11.3556 7.66297 11.5184 8.19905 11.5184 8.74746C11.5184 9.48059 11.2279 10.1838 10.7104 10.7032C10.1929 11.2225 9.49072 11.5156 8.7576 11.5182Z" fill="white"/>
</svg>
