<svg width="19" height="17" viewBox="0 0 19 17" fill="none" xmlns="http://www.w3.org/2000/svg">
<path fill-rule="evenodd" clip-rule="evenodd" d="M18.09 1.41849C18.2988 2.30589 17.7486 3.19453 16.8612 3.40332C15.9738 3.61212 15.0852 3.06199 14.8764 2.17459C14.6676 1.28719 15.2177 0.398548 16.1051 0.189756C16.9925 -0.0190365 17.8812 0.531085 18.09 1.41849ZM0 3.28986H11.586C12.1777 3.27171 12.769 3.33507 13.3434 3.47815C13.7881 3.6273 14.195 3.87144 14.5359 4.19364C14.8571 4.52601 15.0939 4.93067 15.2262 5.37358C15.3834 5.94354 15.4554 6.53363 15.4396 7.12466V8.07865C15.5129 9.03536 15.2941 9.99177 14.812 10.8214C14.5524 11.1394 14.2312 11.4016 13.8677 11.5925C13.5043 11.7834 13.1061 11.899 12.6969 11.9323L15.835 16.1437H12.2262L9.40186 11.9574H3.226V16.1437H0V3.28986ZM3.226 9.13935H11.0651V9.11424C11.3807 9.14896 11.6992 9.08306 11.9751 8.92595C12.0678 8.82142 12.1378 8.69892 12.181 8.5661C12.2242 8.43328 12.2396 8.29299 12.2262 8.15397V7.06817C12.2381 6.93214 12.222 6.79511 12.1788 6.66556C12.1356 6.53601 12.0663 6.4167 11.9751 6.31502C11.7028 6.14753 11.3835 6.07267 11.0651 6.10163H3.226V9.13935Z" fill="white"/>
</svg>
