<svg width="19" height="16" viewBox="0 0 19 16" fill="none" xmlns="http://www.w3.org/2000/svg">
<path fill-rule="evenodd" clip-rule="evenodd" d="M18.09 1.27298C18.2988 2.16038 17.7486 3.04902 16.8612 3.25782C15.9738 3.46661 15.0852 2.91648 14.8764 2.02908C14.6676 1.14168 15.2177 0.25304 16.1051 0.0442478C16.9925 -0.164544 17.8812 0.385578 18.09 1.27298ZM0 3.14435H11.586C12.1777 3.1262 12.769 3.18956 13.3434 3.33264C13.7881 3.48179 14.195 3.72594 14.5359 4.04813C14.8571 4.3805 15.0939 4.78516 15.2262 5.22807C15.3834 5.79803 15.4554 6.38813 15.4396 6.97915V7.93315C15.5129 8.88985 15.2941 9.84626 14.812 10.6759C14.5524 10.9938 14.2312 11.2561 13.8677 11.447C13.5043 11.6379 13.1061 11.7535 12.6969 11.7868L15.835 15.9982H12.2262L9.40186 11.8119H3.226V15.9982H0V3.14435ZM3.226 8.99384H11.0651V8.96873C11.3807 9.00346 11.6992 8.93756 11.9751 8.78044C12.0678 8.67591 12.1378 8.55341 12.181 8.42059C12.2242 8.28778 12.2396 8.14748 12.2262 8.00846V6.92267C12.2381 6.78663 12.222 6.6496 12.1788 6.52005C12.1356 6.3905 12.0663 6.2712 11.9751 6.16951C11.7028 6.00202 11.3835 5.92716 11.0651 5.95612H3.226V8.99384Z" fill="white"/>
</svg>
