<svg width="20" height="12" viewBox="0 0 20 12" fill="none" xmlns="http://www.w3.org/2000/svg">
<path fill-rule="evenodd" clip-rule="evenodd" d="M19.539 0.839803C19.6757 0.367414 19.539 0.0262438 18.8879 0.0262438H16.7003C16.4962 0.0123528 16.2932 0.0656179 16.1217 0.178025C15.9503 0.290432 15.8197 0.455901 15.7497 0.649535C15.0725 2.27418 14.1669 3.79219 13.0607 5.15692C12.5529 5.66867 12.3185 5.81301 12.0385 5.81301C11.9018 5.81301 11.7 5.64899 11.7 5.15692V0.839803C11.7 0.27556 11.5372 0.0262438 11.0489 0.0262438H7.61115C7.47058 0.0190722 7.33288 0.0681273 7.22802 0.162737C7.12316 0.257347 7.05962 0.389857 7.05122 0.531438C7.05122 1.06288 7.84554 1.18753 7.92367 2.68343V5.92455C7.92367 6.63969 7.79345 6.76435 7.52 6.76435C6.77776 6.76435 4.97426 4.02187 3.89998 0.859486C3.69163 0.249317 3.48329 0 2.92335 0H0.748741C0.0976584 0 0 0.295243 0 0.623291C0 1.20722 0.735715 4.1006 3.45073 7.9322C5.26074 10.5566 7.80647 11.9672 10.1243 11.9672C11.5176 11.9672 11.6869 11.6523 11.6869 11.1077V9.16566C11.6869 8.50957 11.8171 8.41115 12.2599 8.41115C12.5854 8.41115 13.1388 8.56862 14.441 9.83488C15.9255 11.3242 16.1664 12 16.9998 12H19.1874C19.8385 12 20.125 11.6851 19.9492 11.0618C19.4815 10.1014 18.8564 9.22747 18.1001 8.47676C17.5922 7.87316 16.7979 7.21706 16.5961 6.88901C16.3943 6.56096 16.3617 6.2854 16.5961 5.91143C16.5961 5.91143 19.259 2.12575 19.539 0.846364V0.839803Z" fill="white"/>
</svg>
