<svg width="20" height="13" viewBox="0 0 20 13" fill="none" xmlns="http://www.w3.org/2000/svg">
<path fill-rule="evenodd" clip-rule="evenodd" d="M19.539 0.985311C19.6757 0.512922 19.539 0.171752 18.8879 0.171752H16.7003C16.4962 0.157861 16.2932 0.211126 16.1217 0.323533C15.9503 0.43594 15.8197 0.601409 15.7497 0.795043C15.0725 2.41968 14.1669 3.9377 13.0607 5.30242C12.5529 5.81418 12.3185 5.95852 12.0385 5.95852C11.9018 5.95852 11.7 5.7945 11.7 5.30242V0.985311C11.7 0.421068 11.5372 0.171752 11.0489 0.171752H7.61115C7.47058 0.16458 7.33288 0.213635 7.22802 0.308245C7.12316 0.402855 7.05962 0.535365 7.05122 0.676946C7.05122 1.20838 7.84554 1.33304 7.92367 2.82894V6.07006C7.92367 6.7852 7.79345 6.90986 7.52 6.90986C6.77776 6.90986 4.97426 4.16738 3.89998 1.00499C3.69163 0.394824 3.48329 0.145508 2.92335 0.145508H0.748741C0.0976584 0.145508 0 0.440751 0 0.768799C0 1.35272 0.735715 4.24611 3.45073 8.07771C5.26074 10.7021 7.80647 12.1127 10.1243 12.1127C11.5176 12.1127 11.6869 11.7978 11.6869 11.2532V9.31117C11.6869 8.65508 11.8171 8.55666 12.2599 8.55666C12.5854 8.55666 13.1388 8.71412 14.441 9.98039C15.9255 11.4697 16.1664 12.1455 16.9998 12.1455H19.1874C19.8385 12.1455 20.125 11.8306 19.9492 11.2073C19.4815 10.2469 18.8564 9.37297 18.1001 8.62227C17.5922 8.01866 16.7979 7.36257 16.5961 7.03452C16.3943 6.70647 16.3617 6.43091 16.5961 6.05694C16.5961 6.05694 19.259 2.27126 19.539 0.991872V0.985311Z" fill="white"/>
</svg>
