<svg width="70" height="70" viewBox="0 0 70 70" fill="none" xmlns="http://www.w3.org/2000/svg">
<path d="M27.3552 21.0562H4.43285C4.05284 21.0562 3.68841 21.2071 3.4197 21.4758C3.15099 21.7445 3 22.109 3 22.489V68.3307C3 68.7107 3.15099 69.0751 3.4197 69.3438C3.68841 69.6126 4.05284 69.7635 4.43285 69.7635H27.3552C27.5432 69.7635 27.7294 69.7264 27.9031 69.6544C28.0768 69.5823 28.2345 69.4768 28.3673 69.3437C28.5001 69.2106 28.6054 69.0526 28.6771 68.8788C28.7487 68.7049 28.7854 68.5187 28.785 68.3307V22.4767C28.7826 22.0991 28.6309 21.7378 28.363 21.4717C28.0951 21.2055 27.7328 21.0561 27.3552 21.0562ZM25.9224 66.8978H5.86571V23.9218H25.9224V66.8978Z" fill="#2052C9"/>
<path d="M50.2685 35.3823C49.8884 35.3823 49.524 35.5333 49.2553 35.802C48.9866 36.0707 48.8356 36.4352 48.8356 36.8152V42.5465C48.8348 42.9263 48.6836 43.2903 48.415 43.5588C48.1465 43.8273 47.7825 43.9786 47.4028 43.9794H36.5322L38.3731 42.1231C38.5139 41.9918 38.6269 41.8334 38.7051 41.6575C38.7833 41.4816 38.8253 41.2917 38.8285 41.0991C38.8317 40.9066 38.7961 40.7154 38.7238 40.537C38.6514 40.3585 38.5439 40.1965 38.4075 40.0605C38.2712 39.9246 38.1088 39.8175 37.9301 39.7457C37.7515 39.6739 37.5602 39.6389 37.3676 39.6427C37.1751 39.6465 36.9854 39.689 36.8097 39.7678C36.634 39.8466 36.4759 39.96 36.3451 40.1012L32.0496 44.3966C31.9798 44.4648 31.9171 44.5398 31.8624 44.6206C31.8624 44.6452 31.8348 44.6728 31.8226 44.6973C31.8103 44.7219 31.7612 44.8047 31.7366 44.8599C31.7213 44.906 31.7121 44.952 31.6968 44.998C31.6823 45.0369 31.671 45.0769 31.663 45.1177C31.663 45.1637 31.663 45.2128 31.6477 45.2588C31.6323 45.3048 31.6477 45.3478 31.6477 45.3938C31.6477 45.4398 31.6477 45.4828 31.6477 45.5257C31.6477 45.5687 31.6477 45.6208 31.663 45.6669C31.6714 45.7065 31.6827 45.7455 31.6968 45.7835C31.6968 45.8295 31.7213 45.8755 31.7366 45.9215C31.7616 45.9766 31.7903 46.0299 31.8226 46.0811C31.834 46.1085 31.8473 46.1352 31.8624 46.1608C31.9171 46.2416 31.9798 46.3167 32.0496 46.3848L36.3451 50.6803C36.4759 50.8215 36.634 50.9349 36.8097 51.0136C36.9854 51.0924 37.1751 51.135 37.3676 51.1388C37.5602 51.1426 37.7515 51.1075 37.9301 51.0357C38.1088 50.9639 38.2712 50.8569 38.4075 50.7209C38.5439 50.585 38.6514 50.4229 38.7238 50.2445C38.7961 50.066 38.8317 49.8748 38.8285 49.6823C38.8253 49.4898 38.7833 49.2999 38.7051 49.124C38.6269 48.948 38.5139 48.7897 38.3731 48.6583L36.5322 46.8021H47.4028C48.542 46.8021 49.6345 46.3495 50.4401 45.544C51.2457 44.7384 51.6982 43.6459 51.6982 42.5066V36.8152C51.6982 36.4357 51.5477 36.0717 51.2797 35.8031C51.0116 35.5345 50.6479 35.3831 50.2685 35.3823Z" fill="#2052C9"/>
<path d="M13.6926 28.9878H18.0954C18.4755 28.9878 18.8399 28.8368 19.1086 28.5681C19.3773 28.2994 19.5283 27.9349 19.5283 27.5549C19.5283 27.1749 19.3773 26.8104 19.1086 26.5417C18.8399 26.273 18.4755 26.1221 18.0954 26.1221H13.6926C13.3126 26.1221 12.9481 26.273 12.6794 26.5417C12.4107 26.8104 12.2598 27.1749 12.2598 27.5549C12.2598 27.9349 12.4107 28.2994 12.6794 28.5681C12.9481 28.8368 13.3126 28.9878 13.6926 28.9878Z" fill="#2052C9"/>
<path d="M14.877 61.5849C14.7439 61.7189 14.6385 61.8778 14.5669 62.0526C14.4953 62.2274 14.4589 62.4146 14.4597 62.6035C14.4585 62.792 14.4947 62.9789 14.5663 63.1533C14.6379 63.3277 14.7434 63.4861 14.8767 63.6194C15.01 63.7527 15.1684 63.8582 15.3428 63.9298C15.5172 64.0013 15.7041 64.0376 15.8926 64.0363C16.0812 64.0406 16.2683 64.0007 16.4387 63.9198C16.6127 63.8454 16.7725 63.7416 16.9112 63.6129C17.044 63.4795 17.1489 63.321 17.22 63.1466C17.2911 62.9723 17.327 62.7856 17.3254 62.5974C17.3282 62.3118 17.2456 62.0318 17.0882 61.7935C16.9308 61.5551 16.7057 61.3693 16.4419 61.2598C16.178 61.1503 15.8875 61.1222 15.6076 61.179C15.3277 61.2359 15.0711 61.375 14.8709 61.5787L14.877 61.5849Z" fill="#2052C9"/>
<path d="M64.5998 1H35.9492C35.5692 1 35.2047 1.15096 34.936 1.41967C34.6673 1.68838 34.5164 2.05283 34.5164 2.43284V25.3552C34.5164 25.7352 34.6673 26.0997 34.936 26.3684C35.2047 26.6371 35.5692 26.7881 35.9492 26.7881H44.5401V29.6507H43.1073C42.7272 29.6507 42.3628 29.8016 42.0941 30.0703C41.8254 30.339 41.6744 30.7035 41.6744 31.0835C41.6744 31.4635 41.8254 31.828 42.0941 32.0967C42.3628 32.3654 42.7272 32.5163 43.1073 32.5163H57.4326C57.8126 32.5163 58.1771 32.3654 58.4458 32.0967C58.7145 31.828 58.8654 31.4635 58.8654 31.0835C58.8654 30.7035 58.7145 30.339 58.4458 30.0703C58.1771 29.8016 57.8126 29.6507 57.4326 29.6507H55.9998V26.7881H64.5907C64.7789 26.7885 64.9654 26.7517 65.1395 26.6798C65.3135 26.6079 65.4716 26.5024 65.6047 26.3693C65.7378 26.2362 65.8434 26.078 65.9152 25.904C65.9871 25.73 66.0239 25.5435 66.0235 25.3552V2.43284C66.0243 2.05417 65.8749 1.69064 65.608 1.42202C65.3411 1.1534 64.9785 1.00162 64.5998 1ZM63.1701 3.86568V18.1818H37.3974V3.86568H63.1701ZM53.1402 29.6384H47.4089V26.7881H53.1402V29.6384ZM54.5638 23.9224H37.382V21.0567H63.1547V23.9224H54.5638Z" fill="#2052C9"/>
</svg>
