<svg width="70" height="70" viewBox="0 0 70 70" fill="none" xmlns="http://www.w3.org/2000/svg">
<path d="M56.9671 22.7537C56.9671 22.7344 56.9671 22.7179 56.9671 22.6986C56.9612 22.6265 56.9511 22.5548 56.9368 22.4839C56.9368 22.4839 56.9368 22.4839 56.9368 22.4674C56.9204 22.4002 56.9002 22.334 56.8762 22.2691C56.877 22.2563 56.877 22.2434 56.8762 22.2306C56.8493 22.163 56.819 22.0969 56.7854 22.0323V22.0131C56.7522 21.9548 56.7154 21.8987 56.6753 21.8451L56.6477 21.8066C56.6028 21.7501 56.554 21.6967 56.5018 21.6469L40.5878 6.44603L40.5658 6.42951C40.5204 6.38627 40.4716 6.34668 40.4199 6.31112L40.3868 6.28359C40.3282 6.24458 40.2676 6.20873 40.2051 6.17621C40.1932 6.16816 40.1802 6.16168 40.1666 6.15694C40.1107 6.12862 40.0527 6.10468 39.9931 6.08535L39.9628 6.07159C39.8942 6.04995 39.8243 6.03248 39.7536 6.01927H39.7123C39.655 6.00863 39.5971 6.00219 39.5389 6H16.5132C15.5843 6.00144 14.6936 6.37015 14.0354 7.02572C13.3773 7.68128 13.0051 8.5705 13 9.49942V61.4868C13.0015 62.4181 13.3721 63.3109 14.0306 63.9694C14.6891 64.6279 15.5819 64.9985 16.5132 65H53.4594C54.3905 64.9985 55.2829 64.6278 55.941 63.9692C56.5991 63.3106 56.9691 62.4179 56.9698 61.4868V22.8308C56.9698 22.8033 56.9671 22.7785 56.9671 22.7537ZM41.0586 11.4928L51.1962 21.1788H41.2679C41.2124 21.1788 41.1592 21.1568 41.1199 21.1175C41.0807 21.0783 41.0586 21.0251 41.0586 20.9696V11.4928ZM53.4484 61.6961H16.5132C16.4577 61.6961 16.4045 61.674 16.3652 61.6348C16.326 61.5955 16.3039 61.5423 16.3039 61.4868V9.49942C16.3039 9.44392 16.326 9.3907 16.3652 9.35145C16.4045 9.31221 16.4577 9.29017 16.5132 9.29017H37.7547V20.9696C37.7562 21.9009 38.1268 22.7936 38.7853 23.4522C39.4438 24.1107 40.3366 24.4813 41.2679 24.4828H53.6577V61.4868C53.6577 61.5405 53.6372 61.5921 53.6003 61.631C53.5634 61.67 53.513 61.6932 53.4594 61.6961H53.4484Z" fill="#2052C9"/>
<path d="M26.8214 25.3007C28.7601 25.2963 30.618 24.523 31.9874 23.1506C33.3568 21.7781 34.1258 19.9185 34.1258 17.9797C34.1258 17.5416 33.9518 17.1214 33.642 16.8116C33.3322 16.5018 32.912 16.3277 32.4738 16.3277H29.6958L31.0944 13.9269C31.3136 13.55 31.375 13.1019 31.2651 12.68C31.1553 12.2581 30.8831 11.8968 30.508 11.6747C29.3971 11.0239 28.1342 10.6779 26.8468 10.6715C25.5593 10.6651 24.293 10.9985 23.1757 11.6382C22.0584 12.2778 21.1297 13.201 20.4834 14.3145C19.8371 15.428 19.4961 16.6923 19.4949 17.9797C19.4971 19.9216 20.2698 21.7833 21.6435 23.1559C23.0172 24.5286 24.8794 25.2999 26.8214 25.3007ZM26.8214 13.9792C26.9574 13.9787 27.0934 13.9852 27.2288 13.9985L25.3924 17.1482C25.2475 17.3992 25.1711 17.6839 25.1711 17.9738C25.171 18.2636 25.2472 18.5484 25.392 18.7994C25.5368 19.0505 25.7451 19.2591 25.996 19.4042C26.2469 19.5493 26.5315 19.6259 26.8214 19.6262H30.4557C30.135 20.3233 29.6235 20.9154 28.9803 21.3339C28.3371 21.7525 27.5886 21.9803 26.8214 21.9912C26.2949 21.9912 25.7736 21.8875 25.2873 21.6861C24.8009 21.4846 24.359 21.1893 23.9867 20.8171C23.6145 20.4448 23.3192 20.0029 23.1177 19.5165C22.9163 19.0302 22.8126 18.5089 22.8126 17.9825C22.8126 17.456 22.9163 16.9347 23.1177 16.4484C23.3192 15.962 23.6145 15.5201 23.9867 15.1478C24.359 14.7756 24.8009 14.4803 25.2873 14.2788C25.7736 14.0774 26.2949 13.9737 26.8214 13.9737V13.9792Z" fill="#2052C9"/>
<path d="M48.8697 28.5493H21.1029C20.6648 28.5493 20.2446 28.7234 19.9348 29.0332C19.625 29.343 19.4509 29.7632 19.4509 30.2013C19.4509 30.6394 19.625 31.0596 19.9348 31.3694C20.2446 31.6792 20.6648 31.8533 21.1029 31.8533H48.8697C49.3078 31.8533 49.728 31.6792 50.0378 31.3694C50.3476 31.0596 50.5217 30.6394 50.5217 30.2013C50.5217 29.7632 50.3476 29.343 50.0378 29.0332C49.728 28.7234 49.3078 28.5493 48.8697 28.5493Z" fill="#2052C9"/>
<path d="M48.8697 37.0679H21.1029C20.6648 37.0679 20.2446 37.2419 19.9348 37.5517C19.625 37.8615 19.4509 38.2817 19.4509 38.7198C19.4509 39.158 19.625 39.5782 19.9348 39.888C20.2446 40.1978 20.6648 40.3718 21.1029 40.3718H48.8697C49.3078 40.3718 49.728 40.1978 50.0378 39.888C50.3476 39.5782 50.5217 39.158 50.5217 38.7198C50.5217 38.2817 50.3476 37.8615 50.0378 37.5517C49.728 37.2419 49.3078 37.0679 48.8697 37.0679Z" fill="#2052C9"/>
<path d="M48.8697 45.5894H21.1029C20.6648 45.5894 20.2446 45.7634 19.9348 46.0732C19.625 46.383 19.4509 46.8032 19.4509 47.2413C19.4509 47.6795 19.625 48.0996 19.9348 48.4094C20.2446 48.7192 20.6648 48.8933 21.1029 48.8933H48.8697C49.3078 48.8933 49.728 48.7192 50.0378 48.4094C50.3476 48.0996 50.5217 47.6795 50.5217 47.2413C50.5217 46.8032 50.3476 46.383 50.0378 46.0732C49.728 45.7634 49.3078 45.5894 48.8697 45.5894Z" fill="#2052C9"/>
<path d="M48.8697 54.1025H21.1029C20.6648 54.1025 20.2446 54.2766 19.9348 54.5864C19.625 54.8962 19.4509 55.3164 19.4509 55.7545C19.4509 56.1926 19.625 56.6128 19.9348 56.9226C20.2446 57.2324 20.6648 57.4065 21.1029 57.4065H48.8697C49.3078 57.4065 49.728 57.2324 50.0378 56.9226C50.3476 56.6128 50.5217 56.1926 50.5217 55.7545C50.5217 55.3164 50.3476 54.8962 50.0378 54.5864C49.728 54.2766 49.3078 54.1025 48.8697 54.1025Z" fill="#2052C9"/>
</svg>
