<svg width="70" height="70" viewBox="0 0 70 70" fill="none" xmlns="http://www.w3.org/2000/svg">
<path d="M12 3V67.3766L18.75 64.0016L24.1561 66.7046L29.5653 64.0016L34.9715 66.7046L40.3807 64.0016L45.7899 66.7046L51.196 64.0016L57.946 67.3766V3H12ZM55.2613 63.0013L51.2052 60.9733L45.7991 63.6794L40.3899 60.9733L34.9807 63.6794L29.5745 60.9733L24.1653 63.6794L18.7592 60.9733L14.7031 63.0013V5.70307H55.2613V63.0013Z" fill="#2052C9"/>
<path d="M49.8552 51.6704H44.446V54.3735H49.8552V51.6704Z" fill="#2052C9"/>
<path d="M49.8552 44.9116H44.446V47.6147H49.8552V44.9116Z" fill="#2052C9"/>
<path d="M49.8552 31.3896H44.446V34.0927H49.8552V31.3896Z" fill="#2052C9"/>
<path d="M49.8552 38.1489H44.446V40.852H49.8552V38.1489Z" fill="#2052C9"/>
<path d="M36.3339 38.1489H20.1094V40.852H36.3339V38.1489Z" fill="#2052C9"/>
<path d="M34.9805 23.2778C36.3155 23.2778 37.6205 22.8819 38.7306 22.1402C39.8406 21.3985 40.7057 20.3443 41.2166 19.1109C41.7275 17.8775 41.8612 16.5203 41.6008 15.211C41.3403 13.9016 40.6975 12.6989 39.7534 11.7549C38.8094 10.8109 37.6067 10.168 36.2973 9.90753C34.988 9.64708 33.6307 9.78076 32.3973 10.2916C31.1639 10.8025 30.1097 11.6677 29.368 12.7777C28.6263 13.8878 28.2305 15.1928 28.2305 16.5278C28.2353 18.3165 28.9481 20.0306 30.2129 21.2954C31.4777 22.5603 33.1917 23.273 34.9805 23.2778ZM34.9805 12.4625C35.7828 12.4619 36.5674 12.6993 37.2348 13.1446C37.9022 13.5899 38.4226 14.2232 38.73 14.9643C39.0375 15.7054 39.1183 16.521 38.9621 17.3081C38.8059 18.0951 38.4199 18.8181 37.8527 19.3857C37.2856 19.9532 36.5629 20.3398 35.776 20.4966C34.9891 20.6534 34.1734 20.5732 33.432 20.2663C32.6907 19.9594 32.057 19.4395 31.6112 18.7724C31.1654 18.1053 30.9274 17.321 30.9274 16.5186C30.9282 15.4437 31.3554 14.4129 32.1152 13.6525C32.875 12.8921 33.9055 12.4641 34.9805 12.4625Z" fill="#2052C9"/>
<path d="M36.3339 44.9116H20.1094V47.6147H36.3339V44.9116Z" fill="#2052C9"/>
<path d="M36.3339 51.6704H20.1094V54.3735H36.3339V51.6704Z" fill="#2052C9"/>
<path d="M36.3339 31.3896H20.1094V34.0927H36.3339V31.3896Z" fill="#2052C9"/>
</svg>
