<svg width="70" height="70" viewBox="0 0 70 70" fill="none" xmlns="http://www.w3.org/2000/svg">
<path d="M39.3084 52.2038C39.4931 52.2807 39.6912 52.3204 39.8913 52.3204C40.0914 52.3204 40.2895 52.2807 40.4743 52.2038L47.574 49.1724C47.9023 49.0328 48.1716 48.7833 48.3357 48.4666C48.4999 48.1499 48.5485 47.786 48.4733 47.4373C48.3982 47.0886 48.2038 46.7771 47.9238 46.5562C47.6438 46.3353 47.2955 46.2189 46.9389 46.227H46.8868C46.712 46.2393 46.5407 46.2819 46.3805 46.3528L39.2777 49.3872C39.0031 49.5085 38.7702 49.7077 38.6077 49.9601C38.4452 50.2125 38.3604 50.507 38.3636 50.8071C38.3669 51.1073 38.4581 51.3999 38.6261 51.6487C38.794 51.8975 39.0312 52.0915 39.3084 52.2068V52.2038Z" fill="#2052C9"/>
<path d="M39.3085 57.0666C39.489 57.1391 39.6816 57.1766 39.8761 57.1771C40.0818 57.1775 40.2854 57.1358 40.4744 57.0544L54.6862 50.9732C55.0067 50.8273 55.2672 50.5755 55.424 50.2602C55.5809 49.9449 55.6244 49.5852 55.5474 49.2416C55.4704 48.898 55.2775 48.5913 55.0012 48.3731C54.7248 48.1548 54.3817 48.0383 54.0296 48.0431C53.8452 48.0528 53.6642 48.0965 53.4957 48.172L39.2809 54.247C39.0063 54.3683 38.7733 54.5675 38.6109 54.8199C38.4484 55.0722 38.3635 55.3668 38.3668 55.6669C38.3701 55.9671 38.4613 56.2597 38.6292 56.5085C38.7972 56.7573 39.0344 56.9513 39.3115 57.0666H39.3085Z" fill="#2052C9"/>
<path d="M64.9922 53.1915V16.6433C64.9937 16.2886 64.8722 15.9443 64.6485 15.6691C64.4247 15.3939 64.1125 15.2047 63.765 15.1338L35.6297 3.10342L35.5346 3.06046H35.4978C35.4585 3.04811 35.4186 3.03786 35.3782 3.02978H35.3444L35.2247 3.00217H35.1726H35.0897H34.9547C34.9323 2.99928 34.9096 2.99928 34.8872 3.00217C34.7102 3.01447 34.5367 3.05811 34.3748 3.13103L6.24577 15.1276C5.89432 15.1949 5.57744 15.3829 5.34996 15.6591C5.12248 15.9353 4.99872 16.2824 5.00009 16.6402V53.1915C4.99773 53.4026 5.04062 53.6119 5.12589 53.8051V53.8327C5.12589 53.8603 5.15043 53.8879 5.16271 53.9094C5.32663 54.2383 5.60317 54.4974 5.94202 54.6396L34.0926 66.673C34.344 66.8476 34.6425 66.9417 34.9486 66.943C34.9956 66.9462 35.0427 66.9462 35.0897 66.943C35.3474 66.9297 35.5975 66.8516 35.8169 66.716L64.0442 54.6488C64.288 54.5477 64.5011 54.3847 64.6626 54.1759C64.824 53.9671 64.9281 53.7198 64.9646 53.4584C64.9646 53.4308 64.9646 53.4032 64.9799 53.3694C64.9953 53.3357 64.9799 53.3234 64.9799 53.2866L64.9922 53.1915ZM61.9425 18.9874V52.2188L36.5134 63.0986V29.8579L61.9425 18.9874ZM59.6014 16.6709L34.9916 27.1794L29.8002 24.9611L54.4162 14.4495L59.6014 16.6709ZM16.2603 38.9091C16.4976 38.9088 16.7316 38.8542 16.9445 38.7495L20.6079 36.9086L24.6549 42.9898C24.8243 43.3054 25.099 43.5519 25.4311 43.6862L25.5262 43.72L25.5722 43.7353C25.6719 43.7662 25.7749 43.7848 25.8791 43.7906C25.9281 43.7935 25.9773 43.7935 26.0263 43.7906C26.0785 43.7906 26.1276 43.7906 26.1982 43.7906C26.2687 43.7906 26.2994 43.7721 26.3424 43.7599L26.4129 43.7415H26.4804C26.8178 43.6338 27.1075 43.4127 27.3005 43.1158C27.4934 42.8188 27.5777 42.4643 27.5389 42.1123V27.3236L33.4697 29.8579V63.0925L8.04679 52.2188V18.9812L14.7416 21.8469V37.3842C14.744 37.7868 14.9045 38.1724 15.1887 38.4576C15.4728 38.7429 15.8577 38.9051 16.2603 38.9091ZM25.4035 23.5375C25.1072 23.6625 24.8582 23.8785 24.6928 24.1543C24.5273 24.43 24.4539 24.7513 24.483 25.0716C24.483 25.1207 24.483 25.1698 24.483 25.2127V37.2339L22.4059 34.1135C22.1985 33.8063 21.887 33.5846 21.5289 33.4893C21.1707 33.3939 20.7902 33.4315 20.4576 33.595L17.7883 34.9266V21.267L44.0611 10.0283L50.5258 12.7897L25.4035 23.5375ZM15.5761 18.8953L10.3847 16.674L34.9916 6.15319L40.1799 8.37148L15.5761 18.8953Z" fill="#2052C9"/>
</svg>
