<svg width="70" height="70" viewBox="0 0 70 70" fill="none" xmlns="http://www.w3.org/2000/svg">
<path d="M17.3268 33.4534H15.4779V34.5435H16.1702C17.4327 34.5435 18.2472 35.2059 18.2472 36.405C18.2472 37.3945 17.7015 38.3001 16.1702 38.3001H14.9729C14.6309 38.3001 14.3376 38.0234 14.3376 37.6964V32.967C14.3376 32.6819 14.5983 32.3885 14.9485 32.3885H17.3268C17.6445 32.3885 17.8888 32.64 17.8888 32.9251C17.8888 33.227 17.6445 33.4534 17.3268 33.4534ZM16.1702 35.6084H15.4779V37.2352H16.1702C16.9359 37.2352 17.1069 36.8159 17.1069 36.4134C17.1069 35.8684 16.7811 35.6084 16.1702 35.6084Z" fill="#2052C9"/>
<path d="M22.4767 37.7551C22.4767 38.057 22.2161 38.3001 21.9066 38.3001H19.7482C19.3491 38.3001 18.9907 38.1576 18.9907 37.7048V32.9838C18.9907 32.6903 19.2595 32.3885 19.6179 32.3885H21.8251C22.1346 32.3885 22.3953 32.64 22.3953 32.9335C22.3953 33.2354 22.1346 33.4534 21.8251 33.4534H20.131V34.8034H21.6704C21.9554 34.8034 22.2324 35.0298 22.2324 35.3317C22.2324 35.6336 21.988 35.8684 21.6704 35.8684H20.131V37.2352H21.9066C22.2079 37.2352 22.4767 37.47 22.4767 37.7551Z" fill="#2052C9"/>
<path d="M24.0867 34.51V36.1703C24.0867 36.8914 24.3311 37.3442 25.0641 37.3442C25.3248 37.3442 25.5365 37.2771 25.7401 37.143L25.8216 37.0926C25.9275 37.0256 25.9845 36.9669 26.1718 36.9669C26.4813 36.9669 26.7094 37.2017 26.7094 37.47C26.7094 37.9563 25.8867 38.3672 25.0234 38.3672C23.598 38.3672 22.9465 37.4951 22.9465 36.1703V34.51C22.9465 33.1851 23.598 32.313 25.0234 32.313C25.8867 32.313 26.7094 32.7239 26.7094 33.2102C26.7094 33.4786 26.4813 33.7133 26.1718 33.7133C25.9845 33.7133 25.9275 33.6546 25.8216 33.5876L25.7401 33.5373C25.5365 33.4031 25.3248 33.336 25.0641 33.336C24.3311 33.336 24.0867 33.7888 24.0867 34.51Z" fill="#2052C9"/>
<path d="M31.4453 37.8306C31.4453 38.124 31.1847 38.3756 30.8752 38.3756C30.5738 38.3756 30.305 38.124 30.305 37.8306V33.445H28.5702V37.8306C28.5702 38.124 28.3095 38.3756 28 38.3756C27.6824 38.3756 27.4299 38.124 27.4299 37.8306V32.9251C27.4299 32.6316 27.6824 32.3801 28 32.3801H30.8752C31.1765 32.3801 31.4453 32.6316 31.4453 32.9251V37.8306Z" fill="#2052C9"/>
<path d="M33.0754 36.7908L33.3605 32.9922C33.3849 32.6652 33.6537 32.3885 33.9958 32.3885H36.2193C36.5614 32.3885 36.8546 32.6652 36.8546 32.9922V37.8389C36.8383 38.1324 36.5859 38.3588 36.2845 38.3588C35.9587 38.3588 35.7144 38.1324 35.7144 37.8306V33.445H34.4438L34.2076 36.774C34.1261 37.6964 33.7596 38.3588 32.9451 38.3588C32.5053 38.3588 32.0817 38.3505 32.0817 37.8222C32.0817 37.4364 32.3505 37.2687 32.6274 37.2687C32.6926 37.2687 32.7333 37.2939 32.8066 37.2939H32.8555C32.9858 37.2939 33.051 37.1262 33.0754 36.7908Z" fill="#2052C9"/>
<path d="M38.8912 37.1346L38.6224 37.9815C38.5409 38.2247 38.2803 38.3756 38.0848 38.3756C37.7672 38.3756 37.4984 38.1576 37.4984 37.8389C37.4984 37.797 37.5065 37.6964 37.5228 37.6545L39.1111 32.8832C39.217 32.5562 39.3799 32.313 39.7708 32.313C40.1618 32.313 40.3247 32.5478 40.4387 32.8832L42.0269 37.6545C42.0432 37.6964 42.0514 37.797 42.0514 37.8389C42.0514 38.1576 41.7989 38.3756 41.4649 38.3756C41.2532 38.3756 40.9925 38.2163 40.9111 37.9815L40.626 37.1346H38.8912ZM40.3328 36.1786L39.9174 34.7447C39.8441 34.5016 39.8034 34.1829 39.7708 33.923C39.7382 34.1829 39.6975 34.5016 39.6242 34.7447L39.1925 36.1786H40.3328Z" fill="#2052C9"/>
<path d="M43.2032 37.8389V33.4534H42.3398C42.014 33.4534 41.7697 33.2102 41.7697 32.9251C41.7697 32.6903 42.0222 32.3885 42.3398 32.3885H45.2068C45.5 32.3885 45.7851 32.6232 45.7851 32.9251C45.7851 33.2102 45.5163 33.4534 45.2068 33.4534H44.3435V37.8389C44.3435 38.124 44.0828 38.3756 43.7733 38.3756C43.4557 38.3756 43.2032 38.124 43.2032 37.8389Z" fill="#2052C9"/>
<path d="M50.4394 37.8306C50.4394 38.124 50.1787 38.3756 49.8692 38.3756C49.5679 38.3756 49.2991 38.124 49.2991 37.8306V35.8768H47.5642V37.8306C47.5642 38.124 47.3036 38.3756 46.9941 38.3756C46.6765 38.3756 46.424 38.124 46.424 37.8306V32.8497C46.424 32.5645 46.6765 32.313 46.9941 32.313C47.3036 32.313 47.5642 32.5645 47.5642 32.8497V34.8034H49.2991V32.8497C49.2991 32.5645 49.5679 32.313 49.8692 32.313C50.1706 32.313 50.4394 32.5645 50.4394 32.8497V37.8306Z" fill="#2052C9"/>
<path d="M53.4458 38.3756C52.0367 38.3756 51.3281 37.3945 51.3281 36.1703V34.51C51.3281 33.3192 51.9227 32.313 53.4458 32.313C54.9689 32.313 55.5635 33.3192 55.5635 34.51V36.1703C55.5635 37.3945 54.8548 38.3756 53.4458 38.3756ZM53.4458 33.3779C52.729 33.3779 52.4684 33.8307 52.4684 34.51V36.1703C52.4684 36.8411 52.7779 37.3107 53.4458 37.3107C54.1137 37.3107 54.4232 36.8411 54.4232 36.1703V34.51C54.4232 33.8307 54.1625 33.3779 53.4458 33.3779Z" fill="#2052C9"/>
<path d="M44.0823 67.4763C42.3229 67.4763 40.5755 66.4811 38.8763 65.5133C37.4723 64.7123 36.0202 63.8871 34.9416 63.8871C33.8631 63.8871 32.4139 64.7123 31.007 65.5133C28.8709 66.7269 26.6626 67.986 24.4482 67.2639C22.1465 66.5084 21.0257 64.0206 20.0406 61.824C19.3958 60.3919 18.73 58.9113 17.9316 58.3227C17.1333 57.7341 15.4913 57.5369 13.9247 57.3579C11.5627 57.0879 8.88436 56.7845 7.47741 54.8367C6.07046 52.8888 6.59467 50.3828 7.08876 47.9343C7.39004 46.3658 7.73048 44.7456 7.40812 43.7474C7.10684 42.8372 5.93789 41.7511 4.80209 40.7134C3.02155 39.072 1 37.2183 1 34.7365C1 32.2547 3.02155 30.4039 4.80811 28.7656C5.94392 27.7249 7.11889 26.6418 7.41414 25.7316C7.73651 24.7334 7.41414 23.1133 7.09479 21.5416C6.6007 19.0932 6.09155 16.5629 7.48344 14.6363C8.87533 12.7097 11.5687 12.3851 13.9307 12.1181C15.4973 11.9391 17.1152 11.754 17.9377 11.1533C18.7602 10.5525 19.4049 9.08407 20.0466 7.65203C21.0348 5.45542 22.1555 2.96451 24.4573 2.21208C26.6746 1.48999 28.88 2.74606 31.016 3.96269C32.423 4.76063 33.8751 5.58891 34.9507 5.58891C36.0262 5.58891 37.4814 4.76063 38.8853 3.96269C41.0214 2.7491 43.2297 1.48999 45.4441 2.21208C47.7458 2.96451 48.8666 5.45542 49.8547 7.65203C50.4964 9.08407 51.1623 10.5647 51.9637 11.1533C52.765 11.7418 54.407 11.9391 55.9736 12.1181C58.3356 12.3851 61.0109 12.6915 62.4179 14.6363C63.8248 16.5811 63.3006 19.0932 62.8096 21.5386C62.5083 23.1102 62.1648 24.7304 62.4872 25.7285C62.7885 26.6387 63.9574 27.7249 65.0962 28.7625C66.8798 30.4009 68.9013 32.2547 68.9013 34.7334C68.9013 37.2122 66.8798 39.069 65.0962 40.7074C63.9574 41.748 62.7824 42.8312 62.4872 43.7414C62.1648 44.7395 62.4872 46.3597 62.8096 47.9283C63.3006 50.3767 63.8098 52.904 62.4179 54.8306C61.026 56.7572 58.3356 57.0818 55.9736 57.3519C54.407 57.5309 52.7861 57.7159 51.9637 58.3167C51.1412 58.9174 50.4964 60.3858 49.8547 61.8179C48.8666 64.0145 47.7458 66.5024 45.4441 67.2578C45.0043 67.402 44.5448 67.4758 44.0823 67.4763ZM34.9507 60.8591C36.8216 60.8591 38.6232 61.8846 40.3736 62.8767C41.9433 63.7869 43.5671 64.6971 44.5192 64.3937C45.5586 64.057 46.3479 62.2942 47.1161 60.5891C47.9206 58.7991 48.7521 56.9483 50.1982 55.8864C51.6443 54.8245 53.6839 54.5849 55.6392 54.3694C57.471 54.1631 59.363 53.9477 59.9896 53.08C60.6163 52.2123 60.2246 50.3676 59.8631 48.5654C59.4684 46.6115 59.0617 44.5939 59.6281 42.8372C60.1704 41.1534 61.6466 39.8032 63.0717 38.4926C64.4967 37.1819 65.8946 35.9046 65.8946 34.7638C65.8946 33.623 64.4605 32.3093 63.0717 31.038C61.6828 29.7668 60.1704 28.3772 59.6281 26.6903C59.0617 24.9367 59.4684 22.916 59.8631 20.9652C60.2246 19.1448 60.6012 17.2971 59.9896 16.4506C59.378 15.6041 57.471 15.3675 55.6392 15.1581C53.6839 14.9366 51.6624 14.7061 50.1982 13.6411C48.734 12.5762 47.9206 10.7315 47.1161 8.94147C46.3479 7.23637 45.5586 5.47362 44.5192 5.13381C43.5641 4.83041 41.9433 5.74061 40.3736 6.65081C38.6292 7.64292 36.8276 8.67145 34.9507 8.67145C33.0737 8.67145 31.2781 7.64292 29.5277 6.65081C27.9581 5.75882 26.3372 4.83041 25.3822 5.13381C24.3458 5.47362 23.5534 7.23637 22.7882 8.94147C21.9838 10.7315 21.1493 12.5823 19.7031 13.6411C18.257 14.7 16.2174 14.9457 14.2621 15.1581C12.4484 15.3493 10.5474 15.5556 9.92075 16.4233C9.2941 17.291 9.68274 19.1357 10.0473 20.9379C10.4389 22.8887 10.8457 24.9094 10.2793 26.663C9.73697 28.3499 8.26072 29.697 6.83569 31.0107C5.41066 32.3244 4.01275 33.5987 4.01275 34.7365C4.01275 35.8742 5.44682 37.194 6.83569 38.4653C8.22457 39.7365 9.73697 41.1382 10.2793 42.8099C10.8457 44.5666 10.4389 46.5842 10.0473 48.5381C9.68274 50.3403 9.30916 52.2062 9.92075 53.0527C10.5323 53.8992 12.4484 54.1358 14.2561 54.3421C16.2114 54.5666 18.2329 54.7972 19.6971 55.8591C21.1613 56.921 21.9778 58.7718 22.7822 60.5618C23.5474 62.2669 24.3398 64.0297 25.3762 64.3664C26.3312 64.6698 27.952 63.7596 29.5217 62.8494C31.2781 61.8786 33.0798 60.8591 34.9507 60.8591Z" fill="#2052C9"/>
</svg>
