<svg width="70" height="70" viewBox="0 0 70 70" fill="none" xmlns="http://www.w3.org/2000/svg">
<path d="M62.7961 5H57.8774C57.5509 5 57.2377 5.13188 57.0068 5.36662C56.7759 5.60137 56.6462 5.91975 56.6462 6.25173V21.254H52.9587V12.5012C52.9579 12.1697 52.8279 11.8521 52.597 11.618C52.3662 11.384 52.0535 11.2525 51.7275 11.2525H39.4308C39.1051 11.2525 38.7927 11.3841 38.5624 11.6182C38.3321 11.8524 38.2027 12.17 38.2027 12.5012V21.254H33.284C32.9574 21.254 32.6443 21.3859 32.4134 21.6207C32.1825 21.8554 32.0528 22.1738 32.0528 22.5058V31.2556H29.5934V22.5058C29.5943 22.1767 29.4673 21.8607 29.2402 21.6263C29.013 21.3919 28.7041 21.2581 28.3804 21.254H16.0686C15.742 21.254 15.4289 21.3859 15.198 21.6207C14.9671 21.8554 14.8374 22.1738 14.8374 22.5058V31.2556H12.378V6.25173C12.3781 5.92293 12.2509 5.60732 12.0239 5.3731C11.7969 5.13888 11.4884 5.00486 11.165 5H6.23119C5.90466 5 5.5915 5.13188 5.36061 5.36662C5.12971 5.60137 5 5.91975 5 6.25173V63.7483C5 64.0802 5.12971 64.3986 5.36061 64.6334C5.5915 64.8681 5.90466 65 6.23119 65H11.1499C11.4732 64.9951 11.7817 64.8611 12.0087 64.6269C12.2357 64.3927 12.3629 64.0771 12.3629 63.7483V61.2479H56.6371V63.7483C56.6371 64.0802 56.7668 64.3986 56.9977 64.6334C57.2286 64.8681 57.5418 65 57.8683 65H62.787C63.1106 64.9959 63.4196 64.8622 63.6467 64.6278C63.8739 64.3934 64.0008 64.0773 64 63.7483V6.25173C64.0009 5.92427 63.8751 5.60956 63.65 5.37543C63.4248 5.14129 63.1181 5.00647 62.7961 5ZM9.91869 62.515H7.45934V7.50039H9.91869V62.515ZM40.662 13.7529H50.4873V21.254H40.662V13.7529ZM34.5121 23.7544H44.3495V31.2556H34.5121V23.7544ZM17.2967 23.7544H27.1371V31.2556H17.2967V23.7544ZM56.6462 58.7598H12.372V56.2594H56.6462V58.7598ZM19.7561 53.7591V46.2579H29.5934V53.7591H19.7561ZM39.4308 53.7591V46.2579H49.2743V53.7591H39.4308ZM56.6462 53.7591H51.7275V45.0093C51.7279 44.845 51.6965 44.6823 51.6349 44.5305C51.5734 44.3786 51.483 44.2406 51.3689 44.1243C51.2548 44.0081 51.1193 43.9158 50.9701 43.8529C50.8209 43.7899 50.6609 43.7575 50.4994 43.7575H38.2027C37.8761 43.7575 37.563 43.8894 37.3321 44.1241C37.1012 44.3589 36.9715 44.6773 36.9715 45.0093V53.7591H32.0528V45.0093C32.0536 44.6802 31.9267 44.3641 31.6995 44.1297C31.4724 43.8953 31.1634 43.7616 30.8398 43.7575H18.5279C18.3662 43.7575 18.2061 43.7899 18.0568 43.8528C17.9074 43.9157 17.7717 44.0079 17.6573 44.1241C17.543 44.2404 17.4523 44.3784 17.3904 44.5302C17.3286 44.6821 17.2967 44.8449 17.2967 45.0093V53.7591H12.378V38.7567H56.6523L56.6462 53.7591ZM56.6462 36.2564H12.372V33.756H56.6462V36.2564ZM56.6462 31.2556H46.8088V23.7544H56.6462V31.2556ZM61.5649 62.515H59.1056V7.50039H61.5649V62.515Z" fill="#2052C9"/>
</svg>
