<svg width="70" height="70" viewBox="0 0 70 70" fill="none" xmlns="http://www.w3.org/2000/svg">
<path d="M67.8372 5H2.6292C2.41525 5 2.2034 5.04214 2.00574 5.12402C1.80807 5.20589 1.62847 5.3259 1.47718 5.47718C1.3259 5.62847 1.20589 5.80807 1.12402 6.00573C1.04214 6.2034 1 6.41525 1 6.6292V51.3142C1.0086 51.7439 1.18292 52.1536 1.48653 52.4578C1.79013 52.7619 2.19954 52.937 2.6292 52.9464H34.7101L31.4486 58.3587C31.3043 58.6062 31.2277 58.8872 31.2264 59.1737C31.2251 59.4602 31.2992 59.7419 31.4413 59.9906C31.5834 60.2394 31.7885 60.4463 32.0359 60.5907C32.2833 60.7351 32.5643 60.8119 32.8508 60.8133H38.1342L40.8066 65.3787C40.9533 65.6187 41.1594 65.8168 41.405 65.9538C41.6506 66.0909 41.9275 66.1623 42.2087 66.1611C42.4954 66.1697 42.7787 66.0978 43.0265 65.9535C43.2744 65.8093 43.4768 65.5984 43.6109 65.345L48.1426 57.5518L52.6405 65.3235C52.7746 65.577 52.9771 65.7878 53.2249 65.9321C53.4727 66.0763 53.7561 66.1482 54.0427 66.1396C54.324 66.1408 54.6008 66.0694 54.8464 65.9324C55.092 65.7953 55.2982 65.5972 55.4449 65.3572L58.1172 60.7918H63.4006C63.6871 60.7904 63.9682 60.7137 64.2156 60.5693C64.463 60.4249 64.668 60.2179 64.8101 59.9692C64.9522 59.7204 65.0263 59.4387 65.025 59.1522C65.0238 58.8658 64.9471 58.5847 64.8028 58.3372L61.5383 52.9342H67.5703C68.0021 52.9358 68.4171 52.7662 68.7241 52.4626C69.0312 52.159 69.2055 51.746 69.2087 51.3142V6.6292C69.213 6.23843 69.0769 5.8591 68.8253 5.56013C68.5736 5.26117 68.223 5.06242 67.8372 5ZM46.1421 54.6339C46.1279 54.6771 46.1105 54.7192 46.09 54.7597L42.2087 61.3134L40.4813 58.371C40.332 58.1311 40.126 57.9315 39.8815 57.7898C39.6371 57.648 39.3616 57.5684 39.0792 57.5579H35.7042L39.7971 50.3937C39.838 50.3442 39.8883 50.3033 39.9451 50.2734C40.0019 50.2435 40.064 50.2251 40.1279 50.2194C40.1919 50.2137 40.2563 50.2207 40.3175 50.2401C40.3787 50.2595 40.4354 50.2909 40.4844 50.3324C40.5071 50.3504 40.5277 50.371 40.5458 50.3937C41.9365 51.8951 43.6875 53.0166 45.6328 53.6521C45.83 53.7155 45.9942 53.8543 46.0896 54.0382C46.185 54.2221 46.2039 54.4362 46.1421 54.6339ZM48.1426 50.6821C46.4396 50.6647 44.8127 49.9737 43.6177 48.7602C42.4227 47.5467 41.7567 45.9094 41.7655 44.2063C41.7742 42.5032 42.4569 40.8728 43.6642 39.6716C44.8716 38.4704 46.5054 37.7961 48.2085 37.7961C49.9117 37.7961 51.5455 38.4704 52.7529 39.6716C53.9603 40.8728 54.6429 42.5032 54.6517 44.2063C54.6604 45.9094 53.9944 47.5467 52.7994 48.7602C51.6044 49.9737 49.9776 50.6647 48.2745 50.6821H48.1426ZM57.1753 57.5641C56.8929 57.5745 56.6174 57.6542 56.373 57.7959C56.1285 57.9377 55.9225 58.1372 55.7732 58.3771L54.0458 61.3134L50.229 54.7904C50.1307 54.6194 50.1033 54.4167 50.1527 54.2258C50.202 54.0349 50.3241 53.8708 50.4928 53.7687C50.5609 53.7303 50.6343 53.7024 50.7107 53.6859C52.6713 53.1344 54.4157 51.995 55.7087 50.4213C55.778 50.3223 55.8838 50.2547 56.0028 50.2334C56.1219 50.2121 56.2445 50.2389 56.3438 50.3078C56.3882 50.3385 56.4267 50.3769 56.4574 50.4213L60.5657 57.5947L57.1753 57.5641ZM66.073 49.6727H59.9152L57.8933 46.1504C58.0245 45.4845 58.0903 44.8073 58.0896 44.1285C58.0442 41.5639 56.9936 39.1197 55.1638 37.3221C53.3341 35.5245 50.8717 34.5173 48.3067 34.5173C45.7417 34.5173 43.2793 35.5245 41.4496 37.3221C39.6199 39.1197 38.5693 41.5639 38.5238 44.1285C38.5232 44.8073 38.589 45.4845 38.7202 46.1504L36.686 49.6727H4.25533V8.25227H66.208L66.073 49.6727Z" fill="#2052C9"/>
<path d="M49.8053 42.4995H46.7095C46.2774 42.4995 45.8631 42.6712 45.5575 42.9767C45.252 43.2822 45.0803 43.6966 45.0803 44.1287C45.0803 44.5608 45.252 44.9752 45.5575 45.2807C45.8631 45.5863 46.2774 45.7579 46.7095 45.7579H49.8053C50.2374 45.7579 50.6518 45.5863 50.9573 45.2807C51.2629 44.9752 51.4345 44.5608 51.4345 44.1287C51.4345 43.6966 51.2629 43.2822 50.9573 42.9767C50.6518 42.6712 50.2374 42.4995 49.8053 42.4995Z" fill="#2052C9"/>
<path d="M30.7303 16.0301H39.7292C39.9493 16.0396 40.1691 16.0045 40.3753 15.9269C40.5814 15.8493 40.7698 15.7307 40.9289 15.5783C41.088 15.4259 41.2146 15.2429 41.3012 15.0403C41.3877 14.8377 41.4323 14.6197 41.4323 14.3994C41.4323 14.1791 41.3877 13.961 41.3012 13.7584C41.2146 13.5558 41.088 13.3728 40.9289 13.2204C40.7698 13.0681 40.5814 12.9495 40.3753 12.8718C40.1691 12.7942 39.9493 12.7591 39.7292 12.7686H30.7303C30.2979 12.7694 29.8835 12.9418 29.5781 13.2478C29.2726 13.5538 29.1011 13.9685 29.1011 14.4009C29.1089 14.8305 29.2831 15.2404 29.587 15.5442C29.8908 15.8481 30.3006 16.0222 30.7303 16.0301Z" fill="#2052C9"/>
<path d="M11.3795 46.8042C11.6563 46.8257 11.9343 46.8257 12.211 46.8042H27.1745C28.5798 46.9145 29.9714 46.462 31.043 45.5462C32.1147 44.6305 32.7787 43.3265 32.889 41.9212C32.9993 40.5159 32.5467 39.1243 31.631 38.0527C30.7153 36.981 29.4113 36.317 28.006 36.2067C27.7292 36.1852 27.4513 36.1852 27.1745 36.2067H12.211C11.5152 36.1521 10.8154 36.2351 10.1516 36.451C9.48784 36.6668 8.87309 37.0113 8.34245 37.4647C7.81181 37.9181 7.37567 38.4716 7.05895 39.0936C6.74222 39.7156 6.55111 40.3939 6.49651 41.0897C6.44191 41.7856 6.52491 42.4853 6.74075 43.1491C6.9566 43.8129 7.30107 44.4276 7.7545 44.9583C8.20793 45.4889 8.76144 45.925 9.38342 46.2418C10.0054 46.5585 10.6837 46.7496 11.3795 46.8042ZM11.6863 39.4651C11.8585 39.4437 12.0327 39.4437 12.2049 39.4651H27.1745C27.4643 39.4278 27.7587 39.4526 28.0381 39.538C28.3175 39.6233 28.5754 39.7673 28.7948 39.9602C29.0142 40.1531 29.19 40.3906 29.3104 40.6568C29.4308 40.923 29.493 41.2118 29.493 41.5039C29.493 41.7961 29.4308 42.0849 29.3104 42.3511C29.19 42.6173 29.0142 42.8547 28.7948 43.0477C28.5754 43.2406 28.3175 43.3845 28.0381 43.4699C27.7587 43.5553 27.4643 43.5801 27.1745 43.5427H12.211C11.6763 43.5993 11.1407 43.4441 10.719 43.1104C10.2974 42.7768 10.0233 42.2912 9.95546 41.7578C9.88763 41.2244 10.0315 40.6856 10.3562 40.2571C10.6809 39.8285 11.1606 39.5442 11.6925 39.4651H11.6863Z" fill="#2052C9"/>
<path d="M22.6461 22.1668H47.5567C47.977 22.1486 48.374 21.9688 48.6649 21.665C48.9558 21.3612 49.1182 20.9567 49.1182 20.5361C49.1182 20.1154 48.9558 19.711 48.6649 19.4072C48.374 19.1034 47.977 18.9236 47.5567 18.9053H22.6461C22.426 18.8958 22.2063 18.9309 22.0001 19.0085C21.7939 19.0862 21.6056 19.2048 21.4465 19.3571C21.2874 19.5095 21.1607 19.6925 21.0742 19.8951C20.9877 20.0977 20.9431 20.3158 20.9431 20.5361C20.9431 20.7564 20.9877 20.9744 21.0742 21.177C21.1607 21.3796 21.2874 21.5627 21.4465 21.715C21.6056 21.8674 21.7939 21.986 22.0001 22.0636C22.2063 22.1413 22.426 22.1764 22.6461 22.1668Z" fill="#2052C9"/>
<path d="M22.6458 28.444H47.5564C47.9885 28.444 48.4029 28.2723 48.7084 27.9668C49.0139 27.6612 49.1856 27.2468 49.1856 26.8148C49.1856 26.3827 49.0139 25.9683 48.7084 25.6627C48.4029 25.3572 47.9885 25.1855 47.5564 25.1855H22.6458C22.2137 25.1855 21.7993 25.3572 21.4938 25.6627C21.1883 25.9683 21.0166 26.3827 21.0166 26.8148C21.0166 27.2468 21.1883 27.6612 21.4938 27.9668C21.7993 28.2723 22.2137 28.444 22.6458 28.444Z" fill="#2052C9"/>
</svg>
