<svg width="70" height="70" viewBox="0 0 70 70" fill="none" xmlns="http://www.w3.org/2000/svg">
<path d="M34.7486 12.4189C29.2605 12.4189 23.8956 14.0464 19.3323 17.0954C14.7691 20.1445 11.2125 24.4782 9.11225 29.5486C7.01202 34.619 6.46251 40.1983 7.5332 45.5811C8.60388 50.9638 11.2467 55.9081 15.1274 59.7888C19.0081 63.6695 23.9524 66.3123 29.3351 67.383C34.7178 68.4537 40.2972 67.9042 45.3676 65.8039C50.438 63.7037 54.7717 60.1471 57.8208 55.5839C60.8698 51.0206 62.4973 45.6557 62.4973 40.1676C62.4891 32.8107 59.563 25.7574 54.3609 20.5553C49.1588 15.3532 42.1055 12.4271 34.7486 12.4189ZM34.7486 64.2344C29.9887 64.2344 25.3356 62.8229 21.3778 60.1784C17.4201 57.5339 14.3354 53.7752 12.5138 49.3775C10.6922 44.9799 10.2156 40.1409 11.1443 35.4724C12.0729 30.8039 14.365 26.5156 17.7308 23.1498C21.0966 19.784 25.3849 17.4918 30.0534 16.5632C34.7219 15.6346 39.561 16.1112 43.9586 17.9327C48.3562 19.7543 52.1149 22.839 54.7594 26.7968C57.4039 30.7545 58.8154 35.4076 58.8154 40.1676C58.8089 46.5485 56.2713 52.6662 51.7593 57.1782C47.2473 61.6902 41.1296 64.2279 34.7486 64.2344Z" fill="#2052C9"/>
<path d="M45.1039 27.2081L33.4448 38.8672C33.2717 39.0377 33.134 39.2408 33.0398 39.4648C32.9456 39.6888 32.8966 39.9293 32.8958 40.1723C32.8949 40.4153 32.9422 40.656 33.0349 40.8807C33.1276 41.1053 33.2638 41.3094 33.4357 41.4811C33.6076 41.6529 33.8119 41.7889 34.0366 41.8813C34.2614 41.9737 34.5022 42.0207 34.7452 42.0195C34.9882 42.0184 35.2286 41.9692 35.4525 41.8747C35.6764 41.7802 35.8793 41.6423 36.0497 41.469L47.7088 29.8099C48.0542 29.4645 48.2483 28.996 48.2483 28.5075C48.2483 28.0189 48.0542 27.5504 47.7088 27.205C47.3633 26.8596 46.8948 26.6655 46.4063 26.6655C45.9178 26.6655 45.4493 26.8596 45.1039 27.205V27.2081Z" fill="#2052C9"/>
<path d="M27.692 6.68182H41.8056C42.2938 6.68182 42.7621 6.48786 43.1073 6.14263C43.4526 5.79739 43.6465 5.32915 43.6465 4.84091C43.6465 4.35267 43.4526 3.88443 43.1073 3.53919C42.7621 3.19395 42.2938 3 41.8056 3H27.692C27.2037 3 26.7355 3.19395 26.3903 3.53919C26.045 3.88443 25.8511 4.35267 25.8511 4.84091C25.8511 5.32915 26.045 5.79739 26.3903 6.14263C26.7355 6.48786 27.2037 6.68182 27.692 6.68182Z" fill="#2052C9"/>
</svg>
