<svg width="160" height="35" viewBox="0 0 160 35" fill="none" xmlns="http://www.w3.org/2000/svg">
<path d="M0 7.47283H17.3257V8.83152L16.5566 9.60598H2.69871V19.7011H14.0536V21.8342H2.69871V32.4796H17.3257V34.6467H0V7.47283Z" fill="white"/>
<path d="M25.7525 34.6467C22.0553 34.6467 19.9773 32.5136 19.9773 29.409V19.3003C19.9773 16.1957 22.0553 14.0625 25.7525 14.0625H35.3735V15.4212L34.6043 16.1957H25.7525C25.3461 16.1902 24.9428 16.2667 24.5662 16.4208C24.1897 16.5749 23.8476 16.8034 23.5602 17.0928C23.2728 17.3821 23.0459 17.7266 22.8929 18.1057C22.7399 18.4849 22.6638 18.891 22.6693 19.3003V29.375C22.6638 29.7842 22.7399 30.1904 22.8929 30.5695C23.0459 30.9487 23.2728 31.2931 23.5602 31.5825C23.8476 31.8719 24.1897 32.1004 24.5662 32.2545C24.9428 32.4085 25.3461 32.4851 25.7525 32.4796H35.3735V34.6467H25.7525Z" fill="white"/>
<path d="M37.303 32.8668H38.0721C39.6104 32.8668 40.7708 31.7459 40.9597 29.572L42.3091 14.0625H56.3626V34.6467H53.6639V16.1957H44.8054L43.6517 29.572C43.3818 32.8668 41.3443 35.0068 38.0721 35.0068H37.303V32.8668Z" fill="white"/>
<path d="M65.5989 34.6467H62.5156V14.0625H65.2143V26.0802L64.8298 31.3179H65.0187C68.7159 25.5367 72.6425 19.8438 76.3803 14.0625H79.4568V34.6467H76.7581V22.5951L77.1426 17.3573H76.9537L65.5989 34.6467Z" fill="white"/>
<path d="M120.268 18.519C120.245 19.009 120.324 19.4985 120.499 19.9561C120.675 20.4137 120.943 20.8293 121.288 21.1765C121.632 21.5237 122.044 21.7948 122.498 21.9724C122.952 22.15 123.438 22.2302 123.925 22.2079H133.37V7.47283H136.069V34.6467H133.37V24.341H123.925C119.877 24.341 117.576 22.0516 117.576 18.519V7.47283H120.275L120.268 18.519Z" fill="white"/>
<path d="M142.674 7.47283H160V8.83152L159.224 9.60598H145.373V19.7011H156.728V21.8342H145.373V32.4796H160V34.6467H142.674V7.47283ZM148.645 0.108696V3.98098H145.947V0.108696H148.645ZM156.741 0.108696V3.98098H154.043V0.108696H156.741Z" fill="white"/>
<path d="M105.176 34.6467H93.9219C92.9229 34.6449 91.9653 34.244 91.2595 33.5321C90.5536 32.8201 90.1572 31.8552 90.1572 30.8492V3.79076C90.1572 2.78539 90.5539 1.82119 91.2599 1.11029C91.9659 0.399383 92.9235 0 93.9219 0L105.176 0C106.174 0 107.132 0.399383 107.838 1.11029C108.544 1.82119 108.94 2.78539 108.94 3.79076V30.8152C108.945 31.3162 108.851 31.8131 108.664 32.2773C108.476 32.7416 108.2 33.1639 107.85 33.5201C107.5 33.8762 107.084 34.1591 106.625 34.3525C106.166 34.5459 105.673 34.6459 105.176 34.6467ZM93.9219 2.03804C93.4447 2.03983 92.9876 2.23151 92.6501 2.57129C92.3127 2.91106 92.1223 3.37139 92.1205 3.8519V30.8152C92.1259 31.2927 92.318 31.7489 92.6553 32.0847C92.9925 32.4204 93.4477 32.6087 93.9219 32.6087H105.176C105.412 32.6096 105.647 32.5633 105.866 32.4725C106.085 32.3816 106.284 32.248 106.451 32.0794C106.619 31.9108 106.751 31.7105 106.842 31.49C106.932 31.2696 106.978 31.0333 106.977 30.7948V3.79076C106.977 3.3097 106.787 2.84833 106.449 2.50817C106.112 2.168 105.653 1.9769 105.176 1.9769L93.9219 2.03804Z" fill="white"/>
<path d="M107.78 7.37772H91.3245V9.35462H107.78V7.37772Z" fill="white"/>
<path d="M108.144 22.6562H90.9534V24.6332H108.144V22.6562Z" fill="white"/>
<path d="M99.5489 31.5761C98.9681 31.5761 98.4004 31.4026 97.9176 31.0776C97.4349 30.7526 97.0587 30.2906 96.8368 29.7502C96.6148 29.2099 96.5571 28.6153 96.6709 28.0419C96.7847 27.4685 97.0649 26.9419 97.476 26.5289C97.8871 26.1159 98.4107 25.835 98.9804 25.7217C99.5502 25.6085 100.141 25.668 100.677 25.8927C101.213 26.1174 101.671 26.4972 101.992 26.9841C102.314 27.4709 102.485 28.043 102.484 28.6277C102.482 29.4103 102.172 30.1602 101.622 30.7129C101.072 31.2657 100.326 31.5761 99.5489 31.5761ZM99.5489 27.6495C99.357 27.6508 99.1698 27.7093 99.0109 27.8176C98.8521 27.9259 98.7286 28.0792 98.6561 28.258C98.5836 28.4369 98.5653 28.6334 98.6036 28.8227C98.6418 29.012 98.7349 29.1857 98.871 29.3218C99.0071 29.458 99.1803 29.5505 99.3685 29.5876C99.5568 29.6248 99.7518 29.6051 99.9289 29.5308C100.106 29.4566 100.257 29.3312 100.364 29.1705C100.47 29.0098 100.527 28.8209 100.527 28.6277C100.527 28.4987 100.502 28.3709 100.453 28.2518C100.403 28.1326 100.331 28.0245 100.24 27.9336C100.149 27.8426 100.041 27.7707 99.9227 27.722C99.8041 27.6732 99.677 27.6486 99.5489 27.6495Z" fill="white"/>
<path d="M101.917 3.82473H97.1875V5.80163H101.917V3.82473Z" fill="white"/>
</svg>
